<?xml version="1.0" encoding="utf-8"?>
<svg aria-label="GitHub" role="img" viewBox="0 0 30 30" preserveAspectRatio="none" width="30px" height="30px" xmlns="http://www.w3.org/2000/svg">
  <g>
    <g style="" transform="matrix(0.055199, 0, 0, 0.055199, 0.750233, 1.408821)">
      <rect width="512" height="512" rx="384" fill="#1B1817"/>
      <path fill="#fff" d="M 335 499 C 349 499 347 516 347 516 L 165 516 C 165 516 163 499 177 499 C 190 499 193 493 193 487 L 192 437 C 121 453 106 409 106 409 C 94 379 78 372 78 372 C 54 356 79 356 79 356 C 105 358 119 382 119 382 C 141 421 178 410 193 404 C 195 387 202 376 209 369 C 152 363 93 341 93 243 C 93 215 103 192 119 174 C 116 168 108 142 122 107 C 122 107 143 100 192 133 C 234 121 278 121 320 133 C 369 100 390 107 390 107 C 404 142 396 168 393 174 C 409 192 419 215 419 243 C 419 341 359 363 302 369 C 312 377 320 393 320 417 L 319 487 C 319 493 322 499 335 499 Z"/>
    </g>
  </g>
</svg>