<?xml version="1.0" encoding="UTF-8" standalone="no"?>
<svg
   xmlns:dc="http://purl.org/dc/elements/1.1/"
   xmlns:cc="http://creativecommons.org/ns#"
   xmlns:rdf="http://www.w3.org/1999/02/22-rdf-syntax-ns#"
   xmlns:svg="http://www.w3.org/2000/svg"
   xmlns="http://www.w3.org/2000/svg"
   xmlns:sodipodi="http://sodipodi.sourceforge.net/DTD/sodipodi-0.dtd"
   xmlns:inkscape="http://www.inkscape.org/namespaces/inkscape"
   inkscape:version="1.0 (4035a4f, 2020-05-01)"
   sodipodi:docname="metabuzz-tilt-red-43-33.svg"
   enable-background="new 0 0 1400 1400"
   height="33.200745"
   width="43.28101"
   y="0px"
   x="0px"
   version="1.1"
   viewBox="0 0 1400px 1400px"
   id="master-artboard">
  <metadata
     id="metadata888">
    <rdf:RDF>
      <cc:Work
         rdf:about="">
        <dc:format>image/svg+xml</dc:format>
        <dc:type
           rdf:resource="http://purl.org/dc/dcmitype/StillImage" />
        <dc:title></dc:title>
      </cc:Work>
    </rdf:RDF>
  </metadata>
  <defs
     id="defs886" />
  <sodipodi:namedview
     inkscape:showpageshadow="false"
     fit-margin-bottom="0"
     fit-margin-right="0"
     fit-margin-left="0"
     fit-margin-top="0"
     inkscape:current-layer="master-artboard"
     inkscape:window-maximized="0"
     inkscape:window-y="23"
     inkscape:window-x="0"
     inkscape:cy="318.56504"
     inkscape:cx="-142.35149"
     inkscape:zoom="0.63857143"
     showgrid="false"
     id="namedview884"
     inkscape:window-height="1032"
     inkscape:window-width="1381"
     inkscape:pageshadow="2"
     inkscape:pageopacity="0"
     guidetolerance="10"
     gridtolerance="10"
     objecttolerance="10"
     borderopacity="1"
     bordercolor="#666666"
     pagecolor="#ffffff" />
  <g
     transform="matrix(1.8486669,-0.6034101,0.6034101,1.8486669,-96.498968,-2.758211)"
     id="g873">
    <title
       id="title870">background</title>
    <path
       d="M -1,-1 H 101 V 101 H -1 Z"
       fill="none"
       id="canvas_background" />
  </g>
  <g
     transform="matrix(0.2376771,0,0,0.2376771,-17.708839,-8.774074)"
     id="g919">
    <path
       d="m 74.507975,114.20244 19.309123,59.15735 14.866212,-17.12611 36.37928,0.72059 -0.42344,18.65109 44.51969,0.99902 0.42723,-18.76484 54.98768,1.08842 -39.82506,-122.012018 -108.133585,82.344408 -22.10713,-5.0579 z m 108.952975,56.43928 -32.85481,-0.73976 0.28929,-12.83252 32.85905,0.65247 z m 53.0186,-17.71045 -26.76611,-0.53013 -29.26177,-89.649257 21.29922,-16.218795 z"
       id="svg_1"
       style="fill:#ff0000;stroke-width:1.94465" />
    <path
       d="m 245.94011,87.908026 -12.64118,4.126116 c -1.5307,0.499626 -2.36751,2.147421 -1.86789,3.678116 0.49963,1.530694 2.14742,2.36751 3.67812,1.867885 l 12.64118,-4.126116 c 1.5307,-0.499626 2.36751,-2.147422 1.86788,-3.678116 -0.49962,-1.530694 -2.14741,-2.367511 -3.67811,-1.867885 z"
       id="svg_2"
       style="fill:#ff0000;stroke-width:1.94465" />
    <path
       d="m 254.27881,118.5442 -11.94015,-2.46253 c -1.57904,-0.32536 -3.12097,0.69138 -3.44692,2.26858 -0.32534,1.57904 0.6914,3.12097 2.26858,3.44692 l 11.94015,2.46254 c 1.57843,0.32349 3.12096,-0.6914 3.44692,-2.2686 0.32534,-1.57903 -0.6914,-3.12095 -2.26858,-3.44691 z"
       id="svg_3"
       style="fill:#ff0000;stroke-width:1.94465" />
    <path
       d="m 228.22128,72.830249 8.18572,-9.039863 c 1.08303,-1.194252 0.99063,-3.037882 -0.20302,-4.119071 -1.19426,-1.083039 -3.03789,-0.990635 -4.12154,0.201775 l -8.18388,9.03926 c -1.08242,1.196108 -0.99001,3.039736 0.20178,4.121528 1.19612,1.082435 3.03974,0.990032 4.12094,-0.203629 z"
       id="svg_4"
       style="fill:#ff0000;stroke-width:1.94465" />
  </g>
</svg>
