<?xml version="1.0" standalone="no"?>
<!DOCTYPE svg PUBLIC "-//W3C//DTD SVG 20010904//EN"
 "http://www.w3.org/TR/2001/REC-SVG-20010904/DTD/svg10.dtd">
<svg version="1.0" xmlns="http://www.w3.org/2000/svg"
 width="700.000000pt" height="700.000000pt" viewBox="0 0 700.000000 700.000000"
 preserveAspectRatio="xMidYMid meet">
<metadata>
Created by potrace 1.11, written by Peter Selinger 2001-2013
</metadata>
<g transform="translate(0.000000,700.000000) scale(0.100000,-0.100000)"
fill="#000000" stroke="none">
<path d="M4290 6919 c-118 -111 -374 -354 -495 -470 -60 -58 -152 -145 -204
-195 -52 -49 -111 -105 -131 -124 -33 -32 -274 -260 -381 -361 -26 -24 -122
-116 -214 -204 -92 -88 -184 -175 -204 -192 l-36 -33 0 -2665 c0 -1466 2
-2665 6 -2665 3 0 37 30 75 67 39 38 144 138 234 223 90 85 209 198 263 250
55 52 117 111 137 130 20 19 108 103 196 186 87 84 182 173 209 199 28 26 91
86 140 133 175 168 437 417 463 439 l27 23 0 2665 c0 1466 -2 2665 -5 2665 -3
0 -39 -32 -80 -71z"/>
<path d="M5250 4327 l0 -2664 132 -124 c72 -68 152 -144 178 -169 26 -25 118
-113 206 -196 223 -212 345 -328 428 -407 144 -138 232 -178 384 -174 197 6
353 123 406 306 14 48 16 274 16 2177 0 1460 -3 2139 -11 2171 -25 114 -60
159 -329 413 -89 85 -198 188 -389 370 -90 85 -180 171 -200 190 -21 19 -111
105 -202 192 -90 86 -182 173 -204 193 -22 21 -120 115 -219 209 -98 94 -182
173 -187 174 -5 2 -9 -1092 -9 -2661z"/>
<path d="M325 6397 c-150 -40 -266 -149 -310 -293 -22 -73 -23 -4280 -1 -4364
29 -110 49 -135 296 -370 206 -196 225 -214 411 -391 85 -81 172 -164 194
-184 22 -21 90 -85 150 -144 143 -137 430 -409 475 -451 19 -17 74 -70 122
-117 l88 -86 0 2670 0 2669 -167 160 c-92 87 -204 193 -248 236 -44 42 -98 93
-120 113 -22 21 -114 109 -205 195 -91 86 -190 180 -220 209 -69 65 -125 105
-187 132 -61 26 -206 34 -278 16z"/>
</g>
</svg>
