<?xml version="1.0" encoding="utf-8"?>
<svg enable-background="new 0 0 1505.005 1669.163" version="1.1" viewBox="0 0 400 400" xmlns="http://www.w3.org/2000/svg">
  <g style="" transform="matrix(1.04474, 0, 0, 1.04474, 5.835541, -4.209474)">
    <path d="M 178.639 9.25 C 185.478 6.746 192.871 8.042 199.978 7.766 C 206.115 7.983 212.519 6.854 218.407 9.101 C 225.544 11.615 232.68 14.139 239.885 16.485 C 241.904 17.237 244.162 17.831 245.587 19.583 C 255.267 31.777 264.521 44.318 273.221 57.234 C 270.914 61.203 268.628 65.172 266.312 69.121 C 273.231 71.773 280.159 74.397 287.078 77.049 C 289.057 81.968 291.056 86.877 292.957 91.836 C 289.563 89.56 286.493 86.769 282.833 84.917 C 278.863 84.245 274.805 85.245 270.836 85.482 C 275.884 88.6 280.991 91.629 286.088 94.688 C 290.949 97.409 293.996 102.219 297.5 106.386 C 296.48 113.087 294.996 119.739 294.323 126.488 C 294.402 133.586 298.757 140.029 298.183 147.214 C 297.718 152.519 297.026 157.805 296.55 163.119 C 295.966 170.593 292.571 177.403 290.433 184.488 C 287.315 194.516 282.742 203.997 278.882 213.746 C 277.369 213.885 275.864 214.033 274.359 214.182 C 267.857 236.075 261.007 257.89 253.712 279.536 C 251.584 284.841 250.248 290.522 247.071 295.353 C 241.558 303.974 236.61 312.951 230.8 321.385 C 221.298 333.034 212.083 344.97 201.512 355.689 C 197.038 360.202 192.684 365.033 186.992 368.031 C 179.193 372.268 171.374 376.504 163.208 380.007 C 157.121 382.581 150.46 382.848 143.947 382.749 C 134.822 377.929 126.745 371.456 118.401 365.439 C 109.325 359.193 102.288 350.602 94.34 343.07 C 91.4 340.021 87.906 337.329 86.036 333.429 C 82.533 326.452 78.356 319.79 75.337 312.575 C 74.001 307.715 72.537 302.895 71.081 298.075 C 71.467 287.83 66.628 278.279 66.726 268.055 C 66.687 261.127 66.31 254.189 66.478 247.26 C 68.072 230.157 70.695 213.152 72.912 196.119 C 74.159 208.213 75.129 220.339 76.278 232.454 C 84.304 238.709 92.331 244.984 100.358 251.24 C 101.685 247.389 103.001 243.529 104.337 239.689 C 110.85 235.631 116.679 230.217 124.153 227.97 C 128.873 226.436 133.416 223.644 138.553 224.09 C 147.412 224.356 156.28 223.476 165.129 224.12 C 170.315 225.524 175.67 226.683 180.569 228.97 C 194.327 237.125 208.025 245.38 221.773 253.566 C 220.655 262.898 219.566 272.232 218.448 281.576 C 221.209 279.596 223.961 277.627 226.722 275.647 C 229.562 276.963 232.423 278.279 235.274 279.606 C 242.212 269.739 249.784 260.335 256.623 250.398 C 259.077 246.657 262.452 243.381 263.71 238.977 C 266.293 230.553 268.975 222.16 271.617 213.766 C 273.24 209.214 271.954 204.373 272.161 199.682 C 272.3 196.347 273.775 193.249 274.091 189.933 C 274.348 186.954 274.211 183.974 274.221 180.995 C 272.973 180.817 271.736 180.639 270.509 180.46 C 269.243 192.131 263.601 202.79 256.978 212.271 C 253.682 215.202 250.011 217.815 246.18 220.002 C 236.124 220.714 225.95 219.388 216.388 216.201 C 208.905 214.766 202.273 209.986 198.156 203.641 C 195.415 199.89 195.098 195.069 193.693 190.774 C 192.099 185.983 192.663 180.896 192.575 175.947 C 192.456 171.137 193.367 166.406 194.07 161.675 C 190.743 160.576 187.507 159.171 184.111 158.349 C 180.36 157.696 176.55 157.587 172.77 157.22 C 171.195 162.387 169.543 167.544 168.602 172.879 C 167.969 177.799 164.337 181.459 161.813 185.508 C 157.24 191.111 151.549 196.247 144.452 198.246 C 139.85 198.513 135.237 198.801 130.635 198.633 C 121.262 196.851 111.749 194.425 103.633 189.24 C 99.18 184.667 95.676 179.154 94.003 172.958 C 92.449 163.021 94.597 153.073 96.566 143.354 C 94.231 143.689 91.905 144.026 89.579 144.383 C 86.471 149.015 81.947 152.886 80.463 158.428 C 77.691 167.247 74.634 175.976 71.931 184.816 C 71.446 181.698 71.417 178.343 69.705 175.591 C 68.438 173.918 66.042 174.344 64.261 174.374 L 63.885 174.007 C 63.232 172.76 62.845 171.444 62.727 170.048 C 62.143 159.824 60.737 149.55 62.479 139.345 C 63.895 131.062 62.44 121.867 67.122 114.453 C 71.991 105.763 76.663 96.954 81.404 88.194 C 83.582 83.948 87.373 80.969 90.728 77.713 C 96.903 71.774 103.089 65.845 109.236 59.877 C 108.405 59.857 106.751 59.818 105.93 59.788 C 109.029 54.583 110.315 47.753 115.857 44.447 C 126.804 37.302 137.534 29.828 148.075 22.098 C 150.806 20.029 153.756 18.238 157.013 17.1 C 164.208 14.466 171.384 11.763 178.639 9.25 M 181.232 50.474 C 172.255 51.79 163.327 53.513 154.518 55.66 C 147.54 58.016 141.166 61.797 134.614 65.084 C 129.16 68.161 123.331 70.695 118.352 74.545 C 111.612 80.811 105.515 87.858 100.913 95.855 C 97.814 102.417 96.379 109.573 94.667 116.58 C 92.094 123.241 86.115 127.874 82.997 134.228 C 81.75 139.335 81.958 144.69 81.334 149.907 C 84.69 144.215 87.451 137.426 93.677 134.307 C 97.189 133.258 101.11 133.921 104.435 132.189 C 106.523 131.279 108.434 129.724 110.809 129.655 C 115.46 129.299 120.103 128.567 124.785 128.547 C 131.406 128.991 137.968 130.072 144.52 131.13 C 152.497 132.318 159.396 136.791 166.542 140.216 C 170.927 142.304 173.065 146.848 174.362 151.272 C 181.893 152.053 189.158 154.131 196.314 156.537 C 197.927 154.251 199.185 151.331 201.887 150.113 C 204.509 149.281 207.301 149.005 210.042 148.787 C 219.326 149.034 228.551 150.311 237.637 152.191 C 249.277 154.438 259.887 160.733 268.329 168.918 C 270.161 170.71 272.883 170.72 275.198 171.432 C 275.02 159.387 275.535 147.321 275.139 135.276 C 272.901 125.972 270.121 116.777 267.507 107.573 C 264.815 101.961 260.529 97.288 257.135 92.093 C 252.8 86.263 249.662 79.304 243.674 74.9 C 236.686 69.615 230.054 63.746 222.186 59.757 C 216.505 56.956 211.002 53.66 204.955 51.69 C 197.168 50.137 189.14 50.038 181.232 50.474 M 110.367 133.141 C 105.962 134.012 101.468 136.823 100.152 141.346 C 98.261 147.453 96.866 153.757 96.301 160.141 C 96.025 168.149 96.668 176.819 101.399 183.59 C 104.003 187.498 108.674 189.023 112.891 190.538 C 122.759 193.833 133.369 196.228 143.782 194.348 C 148.236 193.486 152.818 191.863 155.857 188.331 C 162.507 180.918 165.596 171.266 168.911 162.082 C 170.208 158.122 172.129 153.57 170.04 149.551 C 166.724 144.454 161.112 141.396 155.372 139.811 C 141.06 134.566 125.659 130.915 110.367 133.141 M 205.11 154.481 C 201.428 156.5 197.538 159.647 197.064 164.111 C 195.598 169.921 195.311 175.948 195.44 181.908 C 196.896 190.182 198.35 199.021 203.813 205.741 C 207.347 209.175 211.82 211.848 216.67 212.936 C 225.43 215.144 234.367 217.489 243.494 216.905 C 246.76 216.44 250.352 215.312 252.234 212.372 C 255.618 207.513 259.537 202.979 262.319 197.744 C 264.397 192.271 266.04 186.599 266.981 180.828 C 267.01 176.542 266.357 171.525 262.676 168.763 C 257.48 164.665 252.134 160.132 245.445 158.856 C 237.298 157.025 229.034 155.808 220.828 154.292 C 215.631 153.738 210.208 153.135 205.11 154.481 M 141.634 242.825 C 134.231 242.894 127.481 246.269 120.621 248.654 C 126.244 248.071 131.826 246.467 137.517 247.021 C 141.338 247.368 145.208 247.338 149.009 247.902 C 151.265 249.298 153.254 251.089 155.373 252.683 C 159.718 252.683 164.053 252.227 168.409 252.327 C 172.882 252.98 177.336 253.831 181.75 254.821 C 186.343 256.385 190.777 258.374 195.329 260.057 C 190.866 255.871 186.214 251.902 181.71 247.773 C 177.85 247.368 173.99 246.992 170.139 246.606 C 165.725 246.21 161.668 244.28 157.48 242.984 C 152.404 240.865 146.91 242.795 141.634 242.825 M 125.71 251.357 C 127.164 255.494 131.855 256.899 135.865 256.226 C 136.696 255.385 137.538 254.553 138.389 253.732 C 138.854 254.91 139.329 256.098 139.805 257.284 C 144.09 257.057 148.366 257.889 152.651 257.423 C 153.572 258.146 154.503 258.868 155.443 259.601 C 157.037 259.551 158.639 259.502 160.243 259.432 C 160.51 259.918 161.044 260.868 161.311 261.353 C 164.439 262.195 167.567 263.006 170.695 263.866 C 171.23 263.461 172.308 262.65 172.843 262.234 C 174.368 263.59 175.971 264.867 177.593 266.103 C 178.792 265.698 179.979 265.281 181.187 264.866 C 182.197 265.638 183.206 266.4 184.235 267.172 C 186.481 267.123 188.709 267.45 190.649 268.666 C 191.718 267.469 192.777 266.251 193.807 265.015 C 191.559 263.59 189.134 262.471 186.67 261.491 C 181.731 259.571 177.069 256.74 171.744 255.998 C 166.855 254.898 161.816 255.265 156.897 254.593 C 153.206 254.107 151.128 250.316 147.445 249.891 C 142.921 249.119 138.328 249.623 133.776 249.356 C 130.985 249.239 127.837 249.278 125.71 251.357 M 119.79 253.217 C 121.533 259.067 126.036 263.372 129.777 267.985 C 134.033 271.597 138.3 275.269 142.891 278.446 C 149.286 280.05 155.718 281.634 162.202 282.841 C 169.724 283 177.247 282.9 184.769 282.871 C 189.46 278.546 194.261 274.338 198.992 270.054 C 193.044 270.964 187.184 272.785 181.116 272.656 C 176.544 272.636 171.962 273.24 167.408 272.795 C 159.965 271.083 152.493 269.479 145.079 267.628 C 136.398 263.293 129.194 256.108 119.79 253.217 Z" stroke="#000" stroke-width=".0938"/>
    <path d="M 181.227 50.475 C 189.136 50.039 197.163 50.139 204.953 51.693 C 211 53.662 216.504 56.958 222.185 59.759 C 230.053 63.749 236.685 69.617 243.672 74.903 C 249.66 79.307 252.798 86.265 257.133 92.094 C 260.528 97.29 264.814 101.963 267.506 107.575 C 270.119 116.779 272.9 125.974 275.137 135.278 C 275.533 147.324 275.019 159.389 275.197 171.434 C 272.88 170.722 270.158 170.712 268.328 168.921 C 259.885 160.735 249.274 154.441 237.635 152.193 C 228.549 150.313 219.324 149.036 210.041 148.789 C 207.298 149.007 204.508 149.284 201.884 150.115 C 199.182 151.333 197.926 154.253 196.312 156.54 C 189.157 154.134 181.891 152.055 174.36 151.274 C 173.063 146.849 170.926 142.306 166.54 140.218 C 159.394 136.794 152.496 132.32 144.518 131.132 C 137.966 130.073 131.404 128.994 124.783 128.549 C 120.1 128.569 115.459 129.302 110.807 129.657 C 108.432 129.727 106.521 131.28 104.433 132.192 C 101.107 133.924 97.188 133.26 93.674 134.309 C 87.449 137.427 84.688 144.217 81.332 149.909 C 81.955 144.692 81.748 139.337 82.995 134.23 C 86.113 127.877 92.092 123.244 94.665 116.582 C 96.378 109.576 97.812 102.419 100.91 95.857 C 105.513 87.859 111.609 80.813 118.35 74.547 C 123.328 70.698 129.159 68.163 134.612 65.086 C 141.164 61.799 147.539 58.019 154.516 55.663 C 163.324 53.514 172.25 51.791 181.227 50.475 Z" fill="#fff" stroke="#fff" stroke-width=".0938"/>
    <path d="M 110.362 133.142 C 125.654 130.916 141.055 134.567 155.367 139.813 C 161.109 141.397 166.721 144.455 170.035 149.552 C 172.124 153.571 170.204 158.125 168.908 162.083 C 165.592 171.269 162.504 180.919 155.853 188.332 C 152.813 191.866 148.231 193.489 143.777 194.35 C 133.365 196.23 122.754 193.835 112.886 190.539 C 108.67 189.024 103.998 187.501 101.394 183.591 C 96.664 176.821 96.02 168.151 96.297 160.144 C 96.862 153.76 98.257 147.455 100.147 141.348 C 101.465 136.824 105.958 134.013 110.362 133.142 Z" fill="#fff" stroke="#fff" stroke-width=".0938"/>
    <path d="M 89.578 144.382 C 91.904 144.025 94.23 143.689 96.566 143.353 C 94.597 153.072 92.449 163.018 94.003 172.957 C 95.676 179.152 99.18 184.665 103.633 189.239 C 111.749 194.424 121.261 196.85 130.634 198.632 C 135.236 198.799 139.849 198.512 144.451 198.245 C 151.548 196.247 157.24 191.11 161.812 185.507 C 164.336 181.458 167.969 177.796 168.602 172.878 C 169.542 167.543 171.195 162.386 172.769 157.219 C 176.55 157.586 180.36 157.695 184.111 158.348 C 187.506 159.17 190.743 160.574 194.068 161.674 C 193.366 166.405 192.456 171.136 192.574 175.946 C 192.663 180.894 192.099 185.982 193.692 190.773 C 195.098 195.068 195.415 199.889 198.156 203.64 C 202.273 209.985 208.905 214.764 216.388 216.2 C 225.949 219.387 236.123 220.713 246.18 220.001 C 250.01 217.814 253.682 215.2 256.978 212.27 C 263.6 202.789 269.241 192.128 270.508 180.459 C 271.735 180.637 272.973 180.816 274.22 180.994 C 274.211 183.973 274.348 186.953 274.091 189.932 C 273.774 193.248 272.299 196.345 272.161 199.681 C 271.953 204.372 273.239 209.212 271.617 213.765 C 268.974 222.159 266.291 230.551 263.708 238.975 C 262.452 243.38 259.076 246.656 256.622 250.397 C 249.783 260.334 242.211 269.737 235.274 279.605 C 232.422 278.278 229.562 276.962 226.722 275.646 C 223.961 277.625 221.209 279.595 218.446 281.575 C 219.565 272.231 220.654 262.897 221.773 253.564 C 208.024 245.379 194.327 237.124 180.569 228.969 C 175.669 226.682 170.314 225.524 165.129 224.119 C 156.28 223.475 147.411 224.356 138.553 224.089 C 133.416 223.643 128.873 226.434 124.152 227.968 C 116.679 230.216 110.85 235.629 104.336 239.687 C 103 243.528 101.684 247.388 100.358 251.239 C 92.33 244.983 84.304 238.708 76.276 232.452 C 75.129 220.338 74.159 208.213 72.912 196.118 C 70.695 213.151 68.071 230.155 66.478 247.259 C 62.183 245.567 57.412 244.211 54.155 240.776 C 50.978 235.797 50.236 229.72 47.455 224.533 C 45.059 219.516 41.199 214.557 42.06 208.658 C 42.981 200.82 45.247 193.227 47.307 185.637 C 48.464 182.014 49.296 178.124 51.602 175.026 C 55.423 172.482 60.114 175.254 64.26 174.373 C 66.042 174.343 68.437 173.918 69.704 175.591 C 71.416 178.342 71.446 181.697 71.931 184.815 C 74.634 175.976 77.691 167.247 80.463 158.427 C 81.947 152.884 86.471 149.014 89.578 144.382 M 53.996 181.954 C 52.541 183.606 50.908 185.122 49.69 186.962 C 48.335 195.524 47.573 204.254 48.77 212.894 C 49.888 206.778 51.492 200.76 52.828 194.682 C 53.541 190.366 57.153 187.447 59.449 183.943 C 57.628 183.28 55.807 182.616 53.996 181.954 M 153.426 214.14 C 157.721 215.408 161.997 216.774 166.292 218.06 C 164.342 216.091 162.384 214.131 160.423 212.171 C 158.078 212.814 155.752 213.478 153.426 214.14 M 178.714 221.059 C 182.535 222.603 186.543 223.574 190.7 223.147 C 189.008 221.929 187.295 220.732 185.574 219.554 C 183.287 220.079 181.001 220.564 178.714 221.059 Z" fill="#fff" stroke="#fff" stroke-width=".0938"/>
    <path d="M 205.1 154.476 C 210.197 153.13 215.621 153.733 220.818 154.288 C 229.023 155.802 237.287 157.02 245.433 158.852 C 252.124 160.129 257.469 164.661 262.665 168.759 C 266.347 171.52 267 176.538 266.97 180.824 C 266.03 186.594 264.387 192.266 262.308 197.739 C 259.527 202.976 255.608 207.508 252.222 212.367 C 250.342 215.307 246.749 216.436 243.482 216.901 C 234.357 217.485 225.419 215.139 216.66 212.931 C 211.81 211.843 207.336 209.171 203.803 205.737 C 198.339 199.016 196.884 190.178 195.429 181.903 C 195.3 175.944 195.587 169.916 197.052 164.107 C 197.528 159.642 201.418 156.494 205.1 154.476 Z" fill="#fff" stroke="#fff" stroke-width=".0938"/>
    <path d="M 53.996 181.957 C 55.808 182.621 57.629 183.283 59.45 183.946 C 57.155 187.451 53.542 190.371 52.829 194.686 C 51.493 200.763 49.89 206.781 48.771 212.898 C 47.573 204.257 48.336 195.528 49.692 186.966 C 50.908 185.124 52.542 183.609 53.996 181.957 Z" stroke="#000" stroke-width=".0938"/>
    <path d="M 153.426 214.141 C 155.752 213.478 158.078 212.815 160.423 212.172 C 162.384 214.132 164.344 216.092 166.293 218.061 C 161.998 216.775 157.722 215.409 153.426 214.141 Z" stroke="#000" stroke-width=".0938"/>
    <path d="M 274.355 214.182 C 278.433 214.231 282.501 214.351 286.559 214.677 C 287.737 218.379 289.39 222.169 288.548 226.138 C 288.074 231.562 285.323 236.323 282.739 240.985 C 278.75 248.062 277.156 256.159 273.544 263.403 C 271.496 267.531 269.327 271.608 267.21 275.696 C 262.727 277.033 258.243 278.388 253.709 279.536 C 261.004 257.89 267.853 236.075 274.355 214.182 M 279.641 222.556 C 279.037 229.939 278.315 237.323 277.701 244.717 C 280.314 240.45 282.888 236.165 285.461 231.879 C 287.56 229.127 285.659 225.624 285.609 222.535 C 283.611 222.526 281.62 222.535 279.641 222.556 Z" fill="#fff" stroke="#fff" stroke-width=".0938"/>
    <path d="M 178.713 221.062 C 180.999 220.567 183.286 220.083 185.573 219.557 C 187.294 220.736 189.007 221.933 190.699 223.151 C 186.542 223.576 182.533 222.606 178.713 221.062 Z" stroke="#000" stroke-width=".0938"/>
    <path d="M 279.632 222.557 C 281.611 222.537 283.601 222.528 285.6 222.537 C 285.649 225.625 287.55 229.13 285.451 231.881 C 282.879 236.167 280.305 240.453 277.692 244.718 C 278.306 237.324 279.028 229.94 279.632 222.557 Z" stroke="#000" stroke-width=".0938"/>
    <path d="M 141.63 242.826 C 146.906 242.796 152.399 240.866 157.477 242.984 C 161.663 244.28 165.721 246.21 170.135 246.606 C 173.986 246.993 177.846 247.368 181.706 247.774 C 186.209 251.902 190.861 255.871 195.325 260.057 C 190.772 258.375 186.338 256.386 181.745 254.822 C 177.33 253.832 172.878 252.98 168.404 252.327 C 164.048 252.228 159.714 252.683 155.369 252.683 C 153.25 251.089 151.261 249.298 149.004 247.903 C 145.203 247.338 141.333 247.368 137.512 247.022 C 131.822 246.467 126.239 248.071 120.617 248.656 C 127.477 246.271 134.228 242.896 141.63 242.826 Z" fill="#fff" stroke="#fff" stroke-width=".0938"/>
    <path d="M 125.704 251.357 C 127.832 249.277 130.98 249.238 133.771 249.357 C 138.324 249.623 142.917 249.119 147.44 249.891 C 151.122 250.317 153.2 254.107 156.892 254.593 C 161.812 255.266 166.85 254.899 171.74 255.998 C 177.064 256.74 181.725 259.571 186.666 261.492 C 189.129 262.471 191.555 263.59 193.802 265.015 C 192.772 266.253 191.713 267.471 190.645 268.668 C 188.704 267.45 186.477 267.123 184.231 267.173 C 183.201 266.401 182.192 265.639 181.182 264.867 C 179.975 265.282 178.787 265.698 177.589 266.104 C 175.967 264.867 174.363 263.59 172.838 262.234 C 172.303 262.65 171.225 263.461 170.691 263.868 C 167.562 263.006 164.435 262.195 161.307 261.354 C 161.039 260.868 160.506 259.918 160.238 259.433 C 158.635 259.503 157.031 259.551 155.438 259.601 C 154.498 258.869 153.567 258.147 152.647 257.425 C 148.362 257.889 144.085 257.057 139.8 257.286 C 139.324 256.098 138.849 254.91 138.384 253.732 C 137.533 254.554 136.691 255.386 135.86 256.226 C 131.851 256.899 127.159 255.493 125.704 251.357 Z" fill="#fff" stroke="#fff" stroke-width=".0938"/>
    <path d="M 119.787 253.218 C 129.189 256.108 136.395 263.293 145.075 267.629 C 152.488 269.479 159.961 271.083 167.405 272.795 C 171.957 273.241 176.54 272.638 181.113 272.657 C 187.181 272.786 193.04 270.965 198.988 270.054 C 194.257 274.34 189.456 278.546 184.764 282.871 C 177.242 282.901 169.72 283.001 162.198 282.841 C 155.715 281.634 149.281 280.051 142.888 278.447 C 138.295 275.27 134.029 271.598 129.773 267.985 C 126.032 263.373 121.528 259.067 119.787 253.218 Z" fill="#fff" stroke="#fff" stroke-width=".0938"/>
  </g>
</svg>